<mxfile host="app.diagrams.net" modified="2022-12-16T11:24:39.167Z" agent="5.0 (Windows NT 10.0; Win64; x64) AppleWebKit/537.36 (KHTML, like Gecko) Chrome/108.0.0.0 Safari/537.36" etag="oPdmsn9-y0tewNrVwHAj" version="20.3.2" type="github">
  <diagram id="Y0AAvb-M71FOEgXkoV7s" name="Sida-1">
    <mxGraphModel dx="1038" dy="547" grid="1" gridSize="10" guides="1" tooltips="1" connect="1" arrows="1" fold="1" page="1" pageScale="1" pageWidth="827" pageHeight="1169" math="0" shadow="0">
      <root>
        <mxCell id="0" />
        <mxCell id="1" parent="0" />
        <mxCell id="zo27e2PBpPVpEpOF8kDl-1" value="" style="edgeStyle=orthogonalEdgeStyle;rounded=0;orthogonalLoop=1;jettySize=auto;html=1;fontSize=13;" edge="1" parent="1" source="zo27e2PBpPVpEpOF8kDl-2" target="zo27e2PBpPVpEpOF8kDl-6">
          <mxGeometry relative="1" as="geometry" />
        </mxCell>
        <mxCell id="zo27e2PBpPVpEpOF8kDl-2" value="&lt;b&gt;&lt;font style=&quot;font-size: 13px;&quot;&gt;Datasource&lt;/font&gt;&lt;/b&gt;&lt;br&gt;RaspPi sensor simulator&amp;nbsp;&lt;br&gt;Sends data to device" style="rounded=1;whiteSpace=wrap;html=1;fillColor=#f8cecc;strokeColor=#b85450;" vertex="1" parent="1">
          <mxGeometry x="30" y="81.25" width="120" height="85" as="geometry" />
        </mxCell>
        <mxCell id="zo27e2PBpPVpEpOF8kDl-3" value="" style="edgeStyle=orthogonalEdgeStyle;rounded=0;orthogonalLoop=1;jettySize=auto;html=1;fontSize=13;" edge="1" parent="1" source="zo27e2PBpPVpEpOF8kDl-4" target="zo27e2PBpPVpEpOF8kDl-8">
          <mxGeometry relative="1" as="geometry" />
        </mxCell>
        <mxCell id="zo27e2PBpPVpEpOF8kDl-4" value="&lt;span style=&quot;font-size: 13px;&quot;&gt;&lt;b&gt;Azure&lt;br&gt;IoT-Hub&lt;/b&gt;&lt;br&gt;Controlls device, storage and data-stream&lt;br&gt;&lt;/span&gt;" style="ellipse;whiteSpace=wrap;html=1;fillColor=#dae8fc;strokeColor=#6c8ebf;" vertex="1" parent="1">
          <mxGeometry x="450" y="70" width="160" height="107.5" as="geometry" />
        </mxCell>
        <mxCell id="zo27e2PBpPVpEpOF8kDl-5" value="" style="edgeStyle=orthogonalEdgeStyle;rounded=0;orthogonalLoop=1;jettySize=auto;html=1;fontSize=13;" edge="1" parent="1" source="zo27e2PBpPVpEpOF8kDl-6" target="zo27e2PBpPVpEpOF8kDl-4">
          <mxGeometry relative="1" as="geometry" />
        </mxCell>
        <mxCell id="zo27e2PBpPVpEpOF8kDl-6" value="&lt;b&gt;Azure&lt;br&gt;Device&lt;/b&gt;&lt;br&gt;Gets data from datasource" style="rounded=0;whiteSpace=wrap;html=1;fontSize=13;fillColor=#dae8fc;strokeColor=#6c8ebf;" vertex="1" parent="1">
          <mxGeometry x="250" y="84.37" width="120" height="78.75" as="geometry" />
        </mxCell>
        <mxCell id="zo27e2PBpPVpEpOF8kDl-7" value="" style="edgeStyle=orthogonalEdgeStyle;rounded=0;orthogonalLoop=1;jettySize=auto;html=1;fontSize=13;" edge="1" parent="1" source="zo27e2PBpPVpEpOF8kDl-8" target="zo27e2PBpPVpEpOF8kDl-11">
          <mxGeometry relative="1" as="geometry" />
        </mxCell>
        <mxCell id="zo27e2PBpPVpEpOF8kDl-8" value="&lt;b&gt;Azure&lt;br&gt;Blob-Container&lt;/b&gt;&lt;br&gt;stores collected data" style="rounded=1;whiteSpace=wrap;html=1;fontSize=13;fillColor=#dae8fc;strokeColor=#6c8ebf;" vertex="1" parent="1">
          <mxGeometry x="680" y="81.25" width="120" height="85" as="geometry" />
        </mxCell>
        <mxCell id="zo27e2PBpPVpEpOF8kDl-9" value="&lt;b&gt;Power Bi&lt;/b&gt;&lt;br&gt;- Gets data from Dataset&lt;br&gt;- Visualizes Data" style="rounded=1;whiteSpace=wrap;html=1;fontSize=13;fillColor=#d5e8d4;strokeColor=#82b366;" vertex="1" parent="1">
          <mxGeometry x="680" y="404.37" width="120" height="70" as="geometry" />
        </mxCell>
        <mxCell id="zo27e2PBpPVpEpOF8kDl-10" value="" style="edgeStyle=orthogonalEdgeStyle;rounded=0;orthogonalLoop=1;jettySize=auto;html=1;fontSize=13;" edge="1" parent="1" source="zo27e2PBpPVpEpOF8kDl-11" target="zo27e2PBpPVpEpOF8kDl-9">
          <mxGeometry relative="1" as="geometry" />
        </mxCell>
        <mxCell id="zo27e2PBpPVpEpOF8kDl-11" value="&lt;b&gt;Azure&lt;br&gt;Data Stream&lt;/b&gt;&lt;br&gt;Streams data from Hub to PowerBi" style="rounded=0;whiteSpace=wrap;html=1;fontSize=13;fillColor=#dae8fc;strokeColor=#6c8ebf;" vertex="1" parent="1">
          <mxGeometry x="680" y="244.37" width="120" height="80" as="geometry" />
        </mxCell>
      </root>
    </mxGraphModel>
  </diagram>
</mxfile>
